<svg viewBox="0 0 170 115" xmlns="http://www.w3.org/2000/svg" xmlns:xlink="http://www.w3.org/1999/xlink"><g transform="translate(-105.767 -121.676)"><symbol id="a"><path d="M.412.496a.085.085 0 0 1-.088.088H0V.7h.324C.364.7.398.691.429.673A.187.187 0 0 0 .501.601.204.204 0 0 0 .528.496V0H.412v.496Z"/></symbol><use transform="matrix(158.79 0 0 -158.79 106.592 234)" fill="#38b6ff" xlink:href="#a"/><symbol id="b"><path d="M0 0v.7h.116V.408H.83a.223.223 0 0 1 .203.114c.02.035.031.075.031.12V.7h.116V.642a.36.36 0 0 0-.04-.17.327.327 0 0 0-.109-.122.327.327 0 0 0 .109-.122.356.356 0 0 0 .04-.17V0h-.116v.058A.23.23 0 0 1 .83.292H.116V0H0Z"/></symbol><use fill="#ff1616" transform="matrix(109.875 0 0 -109.875 144.873 233.964)" xlink:href="#b"/></g></svg>